<svg width="26" height="25" viewBox="0 0 26 25" fill="none" xmlns="http://www.w3.org/2000/svg">
<path d="M6.25118 3.78301L12.6845 10.2163L19.0845 3.81634C19.2259 3.66587 19.3962 3.5455 19.5852 3.46244C19.7742 3.37939 19.9781 3.33537 20.1845 3.33301C20.6265 3.33301 21.0505 3.5086 21.363 3.82116C21.6756 4.13372 21.8512 4.55765 21.8512 4.99967C21.8551 5.20401 21.8172 5.40699 21.7398 5.59614C21.6624 5.7853 21.5472 5.95665 21.4012 6.09967L14.9178 12.4997L21.4012 18.983C21.6759 19.2517 21.837 19.6157 21.8512 19.9997C21.8512 20.4417 21.6756 20.8656 21.363 21.1782C21.0505 21.4907 20.6265 21.6663 20.1845 21.6663C19.9721 21.6752 19.7602 21.6397 19.5622 21.5622C19.3642 21.4848 19.1845 21.367 19.0345 21.2163L12.6845 14.783L6.26785 21.1997C6.12703 21.3451 5.95879 21.4613 5.77285 21.5413C5.58692 21.6214 5.38696 21.6639 5.18452 21.6663C4.74249 21.6663 4.31857 21.4907 4.006 21.1782C3.69344 20.8656 3.51785 20.4417 3.51785 19.9997C3.51396 19.7953 3.55187 19.5924 3.62926 19.4032C3.70664 19.214 3.82186 19.0427 3.96785 18.8997L10.4512 12.4997L3.96785 6.01634C3.69316 5.74761 3.53208 5.38369 3.51785 4.99967C3.51785 4.55765 3.69344 4.13372 4.006 3.82116C4.31857 3.5086 4.74249 3.33301 5.18452 3.33301C5.58452 3.33801 5.96785 3.49967 6.25118 3.78301Z" fill="white"/>
</svg>
