<svg width="83" height="24" viewBox="0 0 83 24" fill="none" xmlns="http://www.w3.org/2000/svg">
<rect x="0.25" y="0.25" width="82.5" height="23.5" rx="7.75" fill="#A6F821" stroke="#A6F821" stroke-width="0.5"/>
<path d="M13.2184 17.8292C13.241 17.8493 13.2695 17.8615 13.2997 17.8639C13.3298 17.8663 13.36 17.8588 13.3854 17.8425C13.4109 17.8262 13.4304 17.8021 13.4409 17.7737C13.4514 17.7454 13.4524 17.7143 13.4437 17.6854L11.6587 11.5668C11.6425 11.5111 11.6096 11.4617 11.5646 11.4253C11.5195 11.3888 11.4643 11.367 11.4065 11.3628C11.1175 11.3415 10.8292 11.3182 10.5409 11.292L8.15382 11.0745C8.12859 11.072 8.10316 11.0765 8.08024 11.0873C8.05732 11.0982 8.03778 11.115 8.02368 11.1361C8.00958 11.1572 8.00146 11.1817 8.00018 11.207C7.9989 11.2323 8.00451 11.2575 8.01641 11.2799C9.3077 13.6953 11.1671 15.9974 13.2184 17.8292ZM14.9694 19.1226C14.9836 19.1722 15.0261 19.209 15.0778 19.209C15.1028 19.2083 15.1268 19.1994 15.1464 19.1839C15.1659 19.1683 15.1799 19.1468 15.1862 19.1226L17.3707 11.6334C17.3772 11.6116 17.3783 11.5886 17.3741 11.5664C17.3699 11.5441 17.3603 11.5231 17.3463 11.5053C17.3323 11.4874 17.3142 11.4732 17.2935 11.4638C17.2729 11.4544 17.2502 11.4502 17.2276 11.4513C15.795 11.5128 14.3605 11.5128 12.928 11.4513C12.9054 11.4502 12.8829 11.4545 12.8623 11.4638C12.8417 11.4732 12.8236 11.4873 12.8096 11.5051C12.7956 11.5228 12.7861 11.5437 12.7818 11.5659C12.7775 11.5881 12.7785 11.611 12.7849 11.6327L14.9694 19.1226ZM16.7119 17.6854C16.6722 17.82 16.8323 17.9227 16.9372 17.8292C18.9885 15.9967 20.8479 13.6953 22.1392 11.2799C22.151 11.2576 22.1566 11.2325 22.1554 11.2072C22.1541 11.182 22.146 11.1575 22.132 11.1365C22.118 11.1154 22.0986 11.0985 22.0758 11.0876C22.053 11.0767 22.0276 11.0722 22.0024 11.0745L19.6154 11.292C19.3264 11.3182 19.0381 11.3415 18.7491 11.3628C18.6912 11.367 18.6361 11.3888 18.591 11.4253C18.5459 11.4617 18.5131 11.5111 18.4969 11.5668L16.7119 17.6854ZM22.0202 10.0063C22.0449 10.0042 22.0686 9.99555 22.0889 9.98136C22.1092 9.96716 22.1255 9.94788 22.136 9.92543C22.1465 9.90299 22.151 9.87817 22.1489 9.85346C22.1469 9.82876 22.1384 9.80502 22.1243 9.78463L19.8307 6.459C19.733 6.31737 19.6023 6.2016 19.4499 6.12165C19.2975 6.04169 19.128 5.99995 18.9559 6H17.1922C17.1689 6 17.146 6.00573 17.1255 6.01668C17.1049 6.02763 17.0874 6.04347 17.0745 6.06279C17.0615 6.08211 17.0535 6.10433 17.0512 6.12747C17.0489 6.15062 17.0523 6.17398 17.0611 6.1955L18.6598 10.1076C18.6825 10.163 18.7222 10.2097 18.7731 10.2411C18.824 10.2725 18.8835 10.2871 18.9432 10.2826C19.1344 10.2677 19.3271 10.2514 19.519 10.233L22.0202 10.0063ZM15.903 6.17425C15.8814 6.12255 15.845 6.0784 15.7984 6.04739C15.7517 6.01637 15.6969 5.99988 15.6409 6H14.5147C14.4586 5.99988 14.4038 6.01637 14.3572 6.04739C14.3105 6.0784 14.2741 6.12255 14.2526 6.17425L12.5823 10.182C12.5737 10.203 12.5702 10.2257 12.5722 10.2483C12.5741 10.2709 12.5815 10.2927 12.5936 10.3119C12.6058 10.331 12.6224 10.347 12.642 10.3584C12.6616 10.3698 12.6836 10.3764 12.7063 10.3775C14.2859 10.454 15.8697 10.454 17.45 10.3775C17.4726 10.3763 17.4946 10.3696 17.5141 10.3582C17.5336 10.3467 17.5501 10.3307 17.5621 10.3116C17.5742 10.2925 17.5815 10.2707 17.5834 10.2481C17.5854 10.2256 17.5819 10.2029 17.5732 10.182L15.903 6.17425ZM13.0944 6.1955C13.1033 6.17398 13.1067 6.15062 13.1044 6.12747C13.102 6.10433 13.094 6.08211 13.0811 6.06279C13.0681 6.04347 13.0506 6.02763 13.0301 6.01668C13.0096 6.00573 12.9867 6 12.9634 6H11.1997C11.0276 5.99995 10.8581 6.04169 10.7057 6.12165C10.5533 6.2016 10.4226 6.31737 10.3249 6.459L8.03128 9.78463C8.01718 9.80502 8.00867 9.82876 8.00662 9.85346C8.00456 9.87817 8.00903 9.90299 8.01957 9.92543C8.03011 9.94788 8.04635 9.96716 8.06668 9.98136C8.08701 9.99555 8.11071 10.0042 8.13541 10.0063L10.6365 10.233C10.8285 10.2514 11.0204 10.2677 11.2124 10.2826C11.2721 10.2872 11.3317 10.2727 11.3826 10.2413C11.4335 10.2098 11.4731 10.163 11.4957 10.1076L13.0944 6.1955Z" fill="#070125"/>
<path d="M30.262 9.35V12.356H33.796V13.304H30.262V17H29.098V8.402H34.396V9.35H30.262ZM39.1718 13.298C39.1718 13.05 39.1358 12.824 39.0638 12.62C38.9958 12.412 38.8938 12.234 38.7578 12.086C38.6258 11.934 38.4638 11.818 38.2718 11.738C38.0798 11.654 37.8618 11.612 37.6178 11.612C37.1058 11.612 36.6998 11.762 36.3998 12.062C36.1038 12.358 35.9198 12.77 35.8478 13.298H39.1718ZM40.0358 16.148C39.9038 16.308 39.7458 16.448 39.5618 16.568C39.3778 16.684 39.1798 16.78 38.9678 16.856C38.7598 16.932 38.5438 16.988 38.3198 17.024C38.0958 17.064 37.8738 17.084 37.6538 17.084C37.2338 17.084 36.8458 17.014 36.4898 16.874C36.1378 16.73 35.8318 16.522 35.5718 16.25C35.3158 15.974 35.1158 15.634 34.9718 15.23C34.8278 14.826 34.7558 14.362 34.7558 13.838C34.7558 13.414 34.8198 13.018 34.9478 12.65C35.0798 12.282 35.2678 11.964 35.5118 11.696C35.7558 11.424 36.0538 11.212 36.4058 11.06C36.7578 10.904 37.1538 10.826 37.5938 10.826C37.9578 10.826 38.2938 10.888 38.6018 11.012C38.9138 11.132 39.1818 11.308 39.4058 11.54C39.6338 11.768 39.8118 12.052 39.9398 12.392C40.0678 12.728 40.1318 13.112 40.1318 13.544C40.1318 13.712 40.1138 13.824 40.0778 13.88C40.0418 13.936 39.9738 13.964 39.8738 13.964H35.8118C35.8238 14.348 35.8758 14.682 35.9678 14.966C36.0638 15.25 36.1958 15.488 36.3638 15.68C36.5318 15.868 36.7318 16.01 36.9638 16.106C37.1958 16.198 37.4558 16.244 37.7438 16.244C38.0118 16.244 38.2418 16.214 38.4338 16.154C38.6298 16.09 38.7978 16.022 38.9378 15.95C39.0778 15.878 39.1938 15.812 39.2858 15.752C39.3818 15.688 39.4638 15.656 39.5318 15.656C39.6198 15.656 39.6878 15.69 39.7358 15.758L40.0358 16.148ZM44.7377 14.264C44.2457 14.28 43.8257 14.32 43.4777 14.384C43.1337 14.444 42.8517 14.524 42.6317 14.624C42.4157 14.724 42.2577 14.842 42.1577 14.978C42.0617 15.114 42.0137 15.266 42.0137 15.434C42.0137 15.594 42.0397 15.732 42.0917 15.848C42.1437 15.964 42.2137 16.06 42.3017 16.136C42.3937 16.208 42.4997 16.262 42.6197 16.298C42.7437 16.33 42.8757 16.346 43.0157 16.346C43.2037 16.346 43.3757 16.328 43.5317 16.292C43.6877 16.252 43.8337 16.196 43.9697 16.124C44.1097 16.052 44.2417 15.966 44.3657 15.866C44.4937 15.766 44.6177 15.652 44.7377 15.524V14.264ZM41.2877 11.78C41.6237 11.456 41.9857 11.214 42.3737 11.054C42.7617 10.894 43.1917 10.814 43.6637 10.814C44.0037 10.814 44.3057 10.87 44.5697 10.982C44.8337 11.094 45.0557 11.25 45.2357 11.45C45.4157 11.65 45.5517 11.892 45.6437 12.176C45.7357 12.46 45.7817 12.772 45.7817 13.112V17H45.3077C45.2037 17 45.1237 16.984 45.0677 16.952C45.0117 16.916 44.9677 16.848 44.9357 16.748L44.8157 16.172C44.6557 16.32 44.4997 16.452 44.3477 16.568C44.1957 16.68 44.0357 16.776 43.8677 16.856C43.6997 16.932 43.5197 16.99 43.3277 17.03C43.1397 17.074 42.9297 17.096 42.6977 17.096C42.4617 17.096 42.2397 17.064 42.0317 17C41.8237 16.932 41.6417 16.832 41.4857 16.7C41.3337 16.568 41.2117 16.402 41.1197 16.202C41.0317 15.998 40.9877 15.758 40.9877 15.482C40.9877 15.242 41.0537 15.012 41.1857 14.792C41.3177 14.568 41.5317 14.37 41.8277 14.198C42.1237 14.026 42.5097 13.886 42.9857 13.778C43.4617 13.666 44.0457 13.602 44.7377 13.586V13.112C44.7377 12.64 44.6357 12.284 44.4317 12.044C44.2277 11.8 43.9297 11.678 43.5377 11.678C43.2737 11.678 43.0517 11.712 42.8717 11.78C42.6957 11.844 42.5417 11.918 42.4097 12.002C42.2817 12.082 42.1697 12.156 42.0737 12.224C41.9817 12.288 41.8897 12.32 41.7977 12.32C41.7257 12.32 41.6637 12.302 41.6117 12.266C41.5597 12.226 41.5157 12.178 41.4797 12.122L41.2877 11.78ZM49.1925 17.096C48.7125 17.096 48.3425 16.962 48.0825 16.694C47.8265 16.426 47.6985 16.04 47.6985 15.536V11.816H46.9665C46.9025 11.816 46.8485 11.798 46.8045 11.762C46.7605 11.722 46.7385 11.662 46.7385 11.582V11.156L47.7345 11.03L47.9805 9.152C47.9925 9.092 48.0185 9.044 48.0585 9.008C48.1025 8.968 48.1585 8.948 48.2265 8.948H48.7665V11.042H50.5245V11.816H48.7665V15.464C48.7665 15.72 48.8285 15.91 48.9525 16.034C49.0765 16.158 49.2365 16.22 49.4325 16.22C49.5445 16.22 49.6405 16.206 49.7205 16.178C49.8045 16.146 49.8765 16.112 49.9365 16.076C49.9965 16.04 50.0465 16.008 50.0865 15.98C50.1305 15.948 50.1685 15.932 50.2005 15.932C50.2565 15.932 50.3065 15.966 50.3505 16.034L50.6625 16.544C50.4785 16.716 50.2565 16.852 49.9965 16.952C49.7365 17.048 49.4685 17.096 49.1925 17.096ZM56.6253 10.922V17H55.9893C55.8373 17 55.7413 16.926 55.7013 16.778L55.6173 16.124C55.3533 16.416 55.0573 16.652 54.7293 16.832C54.4013 17.008 54.0253 17.096 53.6013 17.096C53.2693 17.096 52.9753 17.042 52.7193 16.934C52.4673 16.822 52.2553 16.666 52.0833 16.466C51.9113 16.266 51.7813 16.024 51.6933 15.74C51.6093 15.456 51.5673 15.142 51.5673 14.798V10.922H52.6353V14.798C52.6353 15.258 52.7393 15.614 52.9473 15.866C53.1593 16.118 53.4813 16.244 53.9133 16.244C54.2293 16.244 54.5233 16.17 54.7953 16.022C55.0713 15.87 55.3253 15.662 55.5573 15.398V10.922H56.6253ZM59.3327 12.14C59.5247 11.724 59.7607 11.4 60.0407 11.168C60.3207 10.932 60.6627 10.814 61.0667 10.814C61.1947 10.814 61.3167 10.828 61.4327 10.856C61.5527 10.884 61.6587 10.928 61.7507 10.988L61.6727 11.786C61.6487 11.886 61.5887 11.936 61.4927 11.936C61.4367 11.936 61.3547 11.924 61.2467 11.9C61.1387 11.876 61.0167 11.864 60.8807 11.864C60.6887 11.864 60.5167 11.892 60.3647 11.948C60.2167 12.004 60.0827 12.088 59.9627 12.2C59.8467 12.308 59.7407 12.444 59.6447 12.608C59.5527 12.768 59.4687 12.952 59.3927 13.16V17H58.3187V10.922H58.9307C59.0467 10.922 59.1267 10.944 59.1707 10.988C59.2147 11.032 59.2447 11.108 59.2607 11.216L59.3327 12.14ZM66.5117 13.298C66.5117 13.05 66.4757 12.824 66.4037 12.62C66.3357 12.412 66.2337 12.234 66.0977 12.086C65.9657 11.934 65.8037 11.818 65.6117 11.738C65.4197 11.654 65.2017 11.612 64.9577 11.612C64.4457 11.612 64.0397 11.762 63.7397 12.062C63.4437 12.358 63.2597 12.77 63.1877 13.298H66.5117ZM67.3757 16.148C67.2437 16.308 67.0857 16.448 66.9017 16.568C66.7177 16.684 66.5197 16.78 66.3077 16.856C66.0997 16.932 65.8837 16.988 65.6597 17.024C65.4357 17.064 65.2137 17.084 64.9937 17.084C64.5737 17.084 64.1857 17.014 63.8297 16.874C63.4777 16.73 63.1717 16.522 62.9117 16.25C62.6557 15.974 62.4557 15.634 62.3117 15.23C62.1677 14.826 62.0957 14.362 62.0957 13.838C62.0957 13.414 62.1597 13.018 62.2877 12.65C62.4197 12.282 62.6077 11.964 62.8517 11.696C63.0957 11.424 63.3937 11.212 63.7457 11.06C64.0977 10.904 64.4937 10.826 64.9337 10.826C65.2977 10.826 65.6337 10.888 65.9417 11.012C66.2537 11.132 66.5217 11.308 66.7457 11.54C66.9737 11.768 67.1517 12.052 67.2797 12.392C67.4077 12.728 67.4717 13.112 67.4717 13.544C67.4717 13.712 67.4537 13.824 67.4177 13.88C67.3817 13.936 67.3137 13.964 67.2137 13.964H63.1517C63.1637 14.348 63.2157 14.682 63.3077 14.966C63.4037 15.25 63.5357 15.488 63.7037 15.68C63.8717 15.868 64.0717 16.01 64.3037 16.106C64.5357 16.198 64.7957 16.244 65.0837 16.244C65.3517 16.244 65.5817 16.214 65.7737 16.154C65.9697 16.09 66.1377 16.022 66.2777 15.95C66.4177 15.878 66.5337 15.812 66.6257 15.752C66.7217 15.688 66.8037 15.656 66.8717 15.656C66.9597 15.656 67.0277 15.69 67.0757 15.758L67.3757 16.148ZM72.7435 12.368C72.5435 12.1 72.3275 11.914 72.0955 11.81C71.8635 11.702 71.6035 11.648 71.3155 11.648C70.7515 11.648 70.3175 11.85 70.0135 12.254C69.7095 12.658 69.5575 13.234 69.5575 13.982C69.5575 14.378 69.5915 14.718 69.6595 15.002C69.7275 15.282 69.8275 15.514 69.9595 15.698C70.0915 15.878 70.2535 16.01 70.4455 16.094C70.6375 16.178 70.8555 16.22 71.0995 16.22C71.4515 16.22 71.7575 16.14 72.0175 15.98C72.2815 15.82 72.5235 15.594 72.7435 15.302V12.368ZM73.8115 8.162V17H73.1755C73.0235 17 72.9275 16.926 72.8875 16.778L72.7915 16.04C72.5315 16.352 72.2355 16.604 71.9035 16.796C71.5715 16.988 71.1875 17.084 70.7515 17.084C70.4035 17.084 70.0875 17.018 69.8035 16.886C69.5195 16.75 69.2775 16.552 69.0775 16.292C68.8775 16.032 68.7235 15.708 68.6155 15.32C68.5075 14.932 68.4535 14.486 68.4535 13.982C68.4535 13.534 68.5135 13.118 68.6335 12.734C68.7535 12.346 68.9255 12.01 69.1495 11.726C69.3735 11.442 69.6475 11.22 69.9715 11.06C70.2995 10.896 70.6675 10.814 71.0755 10.814C71.4475 10.814 71.7655 10.878 72.0295 11.006C72.2975 11.13 72.5355 11.304 72.7435 11.528V8.162H73.8115Z" fill="#070125"/>
</svg>
