<svg width="106" height="27" viewBox="0 0 106 27" fill="none" xmlns="http://www.w3.org/2000/svg">
<rect y="5.88867" width="20" height="3.77778" fill="#070125"/>
<rect y="11.5552" width="20" height="3.77778" fill="#070125"/>
<rect y="17.2222" width="20" height="3.77778" fill="#070125"/>
<path d="M28.1715 12.8205H35.4321C35.7838 12.8205 36.0901 12.6957 36.3397 12.4461C36.6006 12.1852 36.7254 11.8789 36.7254 11.5272C36.7254 11.1641 36.6006 10.8578 36.3397 10.6082C36.0901 10.3473 35.7838 10.2225 35.4321 10.2225H28.1715V12.8205ZM22.2269 5.76405H36.9183C40.0608 5.73002 42.7268 8.37334 42.6814 11.5272C42.7268 14.6697 40.0608 17.3357 36.9183 17.2903H28.1715V21.0113H22.2269V5.76405ZM44.3037 5.74136H50.2483V20.9887H44.3037V5.74136ZM66.6982 14.6697H72.7903C72.4159 19.8201 67.9007 21.363 62.4099 21.363C56.6921 21.3517 51.9727 19.6954 51.9954 13.9209V12.8091C51.9727 7.046 56.6921 5.38968 62.4099 5.36699C67.9007 5.37833 72.4159 6.92121 72.7903 12.0604H66.6982C66.1423 10.5629 64.4519 10.2112 62.4099 10.2112C59.9821 10.2452 57.9174 10.6763 57.9514 13.1835V13.5579C57.9174 16.0424 59.9821 16.4961 62.4099 16.5302C64.4519 16.5302 66.1536 16.1672 66.6982 14.6697Z" fill="#070125"/>
<path d="M92.6816 21.2358L88.0303 10.6512L83.379 21.2358L76.6856 21.2358L84.5021 5.98855L91.5698 5.98855L99.375 21.2358L92.6816 21.2358Z" fill="#364EEF"/>
<path d="M105.773 21.2588L99.8288 21.2588L99.8288 6.0115L105.773 6.0115L105.773 21.2588Z" fill="#364EEF"/>
</svg>
