<svg width="30" height="30" viewBox="0 0 30 30" fill="none" xmlns="http://www.w3.org/2000/svg">
<path d="M7.33139 27.0007H12.6647C12.6647 28.4674 11.4647 29.6674 9.99807 29.6674C8.5314 29.6674 7.33139 28.4674 7.33139 27.0007ZM4.66472 24.334C4.66472 25.0674 5.26472 25.6674 5.99806 25.6674H13.9981C14.7314 25.6674 15.3314 25.0674 15.3314 24.334C15.3314 23.6007 14.7314 23.0007 13.9981 23.0007H5.99806C5.26472 23.0007 4.66472 23.6007 4.66472 24.334ZM19.9981 13.0007C19.9981 18.094 16.4514 20.814 14.9714 21.6674H5.02472C3.54472 20.814 -0.00195312 18.094 -0.00195312 13.0007C-0.00195312 7.48067 4.47806 3.00066 9.99807 3.00066C15.5181 3.00066 19.9981 7.48067 19.9981 13.0007ZM26.4914 10.1607L24.6648 11.0007L26.4914 11.8407L27.3314 13.6673L28.1714 11.8407L29.9981 11.0007L28.1714 10.1607L27.3314 8.334L26.4914 10.1607ZM23.3314 8.334L24.5848 5.58733L27.3314 4.33399L24.5848 3.08066L23.3314 0.333984L22.0781 3.08066L19.3314 4.33399L22.0781 5.58733L23.3314 8.334Z" fill="white"/>
</svg>
