<svg width="83" height="24" viewBox="0 0 83 24" fill="none" xmlns="http://www.w3.org/2000/svg">
<path d="M8 0.25H75C79.2802 0.25 82.75 3.71979 82.75 8V16C82.75 20.2802 79.2802 23.75 75 23.75H8C3.71979 23.75 0.25 20.2802 0.25 16V8C0.25 3.71979 3.71979 0.25 8 0.25Z" fill="#364EEF" stroke="#364EEF" stroke-width="0.5"/>
<path d="M26.74 8.835L23.82 16H22.95L20.03 8.835H20.805C20.8917 8.835 20.9617 8.85667 21.015 8.9C21.0683 8.94333 21.1083 8.99833 21.135 9.065L23.155 14.12C23.1983 14.2333 23.24 14.3567 23.28 14.49C23.3233 14.6233 23.3617 14.7633 23.395 14.91C23.4283 14.7633 23.4633 14.6233 23.5 14.49C23.5367 14.3567 23.5767 14.2333 23.62 14.12L25.635 9.065C25.655 9.00833 25.6933 8.95667 25.75 8.91C25.81 8.86 25.8817 8.835 25.965 8.835H26.74ZM28.4126 10.935V16H27.5226V10.935H28.4126ZM28.6026 9.345C28.6026 9.43167 28.5842 9.51333 28.5476 9.59C28.5142 9.66333 28.4676 9.73 28.4076 9.79C28.3509 9.84667 28.2826 9.89167 28.2026 9.925C28.1259 9.95833 28.0442 9.975 27.9576 9.975C27.8709 9.975 27.7892 9.95833 27.7126 9.925C27.6392 9.89167 27.5742 9.84667 27.5176 9.79C27.4609 9.73 27.4159 9.66333 27.3826 9.59C27.3492 9.51333 27.3326 9.43167 27.3326 9.345C27.3326 9.25833 27.3492 9.17667 27.3826 9.1C27.4159 9.02 27.4609 8.95167 27.5176 8.895C27.5742 8.835 27.6392 8.78833 27.7126 8.755C27.7892 8.72167 27.8709 8.705 27.9576 8.705C28.0442 8.705 28.1259 8.72167 28.2026 8.755C28.2826 8.78833 28.3509 8.835 28.4076 8.895C28.4676 8.95167 28.5142 9.02 28.5476 9.1C28.5842 9.17667 28.6026 9.25833 28.6026 9.345ZM32.8249 11.77C32.7849 11.8433 32.7233 11.88 32.6399 11.88C32.5899 11.88 32.5333 11.8617 32.4699 11.825C32.4066 11.7883 32.3283 11.7483 32.2349 11.705C32.1449 11.6583 32.0366 11.6167 31.9099 11.58C31.7833 11.54 31.6333 11.52 31.4599 11.52C31.3099 11.52 31.1749 11.54 31.0549 11.58C30.9349 11.6167 30.8316 11.6683 30.7449 11.735C30.6616 11.8017 30.5966 11.88 30.5499 11.97C30.5066 12.0567 30.4849 12.1517 30.4849 12.255C30.4849 12.385 30.5216 12.4933 30.5949 12.58C30.6716 12.6667 30.7716 12.7417 30.8949 12.805C31.0183 12.8683 31.1583 12.925 31.3149 12.975C31.4716 13.0217 31.6316 13.0733 31.7949 13.13C31.9616 13.1833 32.1233 13.2433 32.2799 13.31C32.4366 13.3767 32.5766 13.46 32.6999 13.56C32.8233 13.66 32.9216 13.7833 32.9949 13.93C33.0716 14.0733 33.1099 14.2467 33.1099 14.45C33.1099 14.6833 33.0683 14.9 32.9849 15.1C32.9016 15.2967 32.7783 15.4683 32.6149 15.615C32.4516 15.7583 32.2516 15.8717 32.0149 15.955C31.7783 16.0383 31.5049 16.08 31.1949 16.08C30.8416 16.08 30.5216 16.0233 30.2349 15.91C29.9483 15.7933 29.7049 15.645 29.5049 15.465L29.7149 15.125C29.7416 15.0817 29.7733 15.0483 29.8099 15.025C29.8466 15.0017 29.8933 14.99 29.9499 14.99C30.0099 14.99 30.0733 15.0133 30.1399 15.06C30.2066 15.1067 30.2866 15.1583 30.3799 15.215C30.4766 15.2717 30.5933 15.3233 30.7299 15.37C30.8666 15.4167 31.0366 15.44 31.2399 15.44C31.4133 15.44 31.5649 15.4183 31.6949 15.375C31.8249 15.3283 31.9333 15.2667 32.0199 15.19C32.1066 15.1133 32.1699 15.025 32.2099 14.925C32.2533 14.825 32.2749 14.7183 32.2749 14.605C32.2749 14.465 32.2366 14.35 32.1599 14.26C32.0866 14.1667 31.9883 14.0883 31.8649 14.025C31.7416 13.9583 31.5999 13.9017 31.4399 13.855C31.2833 13.805 31.1216 13.7533 30.9549 13.7C30.7916 13.6467 30.6299 13.5867 30.4699 13.52C30.3133 13.45 30.1733 13.3633 30.0499 13.26C29.9266 13.1567 29.8266 13.03 29.7499 12.88C29.6766 12.7267 29.6399 12.5417 29.6399 12.325C29.6399 12.1317 29.6799 11.9467 29.7599 11.77C29.8399 11.59 29.9566 11.4333 30.1099 11.3C30.2633 11.1633 30.4516 11.055 30.6749 10.975C30.8983 10.895 31.1533 10.855 31.4399 10.855C31.7733 10.855 32.0716 10.9083 32.3349 11.015C32.6016 11.1183 32.8316 11.2617 33.0249 11.445L32.8249 11.77ZM35.1411 10.935V16H34.2511V10.935H35.1411ZM35.3311 9.345C35.3311 9.43167 35.3128 9.51333 35.2761 9.59C35.2428 9.66333 35.1961 9.73 35.1361 9.79C35.0794 9.84667 35.0111 9.89167 34.9311 9.925C34.8544 9.95833 34.7728 9.975 34.6861 9.975C34.5994 9.975 34.5178 9.95833 34.4411 9.925C34.3678 9.89167 34.3028 9.84667 34.2461 9.79C34.1894 9.73 34.1444 9.66333 34.1111 9.59C34.0778 9.51333 34.0611 9.43167 34.0611 9.345C34.0611 9.25833 34.0778 9.17667 34.1111 9.1C34.1444 9.02 34.1894 8.95167 34.2461 8.895C34.3028 8.835 34.3678 8.78833 34.4411 8.755C34.5178 8.72167 34.5994 8.705 34.6861 8.705C34.7728 8.705 34.8544 8.72167 34.9311 8.755C35.0111 8.78833 35.0794 8.835 35.1361 8.895C35.1961 8.95167 35.2428 9.02 35.2761 9.1C35.3128 9.17667 35.3311 9.25833 35.3311 9.345ZM38.1584 16.08C37.7584 16.08 37.4501 15.9683 37.2334 15.745C37.0201 15.5217 36.9134 15.2 36.9134 14.78V11.68H36.3034C36.2501 11.68 36.2051 11.665 36.1684 11.635C36.1318 11.6017 36.1134 11.5517 36.1134 11.485V11.13L36.9434 11.025L37.1484 9.46C37.1584 9.41 37.1801 9.37 37.2134 9.34C37.2501 9.30667 37.2968 9.29 37.3534 9.29H37.8034V11.035H39.2684V11.68H37.8034V14.72C37.8034 14.9333 37.8551 15.0917 37.9584 15.195C38.0618 15.2983 38.1951 15.35 38.3584 15.35C38.4518 15.35 38.5318 15.3383 38.5984 15.315C38.6684 15.2883 38.7284 15.26 38.7784 15.23C38.8284 15.2 38.8701 15.1733 38.9034 15.15C38.9401 15.1233 38.9718 15.11 38.9984 15.11C39.0451 15.11 39.0868 15.1383 39.1234 15.195L39.3834 15.62C39.2301 15.7633 39.0451 15.8767 38.8284 15.96C38.6118 16.04 38.3884 16.08 38.1584 16.08ZM52.1043 8.835L49.8693 16H48.9993L47.1843 10.535C47.1676 10.4817 47.151 10.425 47.1343 10.365C47.121 10.305 47.106 10.2417 47.0893 10.175C47.0726 10.2417 47.056 10.305 47.0393 10.365C47.0226 10.425 47.006 10.4817 46.9893 10.535L45.1643 16H44.2943L42.0593 8.835H42.8643C42.951 8.835 43.0226 8.85667 43.0793 8.9C43.1393 8.94333 43.1776 8.99833 43.1943 9.065L44.6743 14.045C44.6976 14.135 44.7193 14.2317 44.7393 14.335C44.7626 14.4383 44.7843 14.5483 44.8043 14.665C44.8276 14.5483 44.851 14.4383 44.8743 14.335C44.901 14.2283 44.9293 14.1317 44.9593 14.045L46.6443 9.065C46.6643 9.00833 46.7026 8.95667 46.7593 8.91C46.8193 8.86 46.891 8.835 46.9743 8.835H47.2543C47.341 8.835 47.411 8.85667 47.4643 8.9C47.5176 8.94333 47.5576 8.99833 47.5843 9.065L49.2643 14.045C49.2943 14.1317 49.321 14.225 49.3443 14.325C49.371 14.425 49.396 14.53 49.4193 14.64C49.436 14.53 49.4543 14.425 49.4743 14.325C49.4943 14.225 49.516 14.1317 49.5393 14.045L51.0243 9.065C51.041 9.005 51.0776 8.95167 51.1343 8.905C51.1943 8.85833 51.266 8.835 51.3493 8.835H52.1043ZM55.7845 12.915C55.7845 12.7083 55.7545 12.52 55.6945 12.35C55.6378 12.1767 55.5528 12.0283 55.4395 11.905C55.3295 11.7783 55.1945 11.6817 55.0345 11.615C54.8745 11.545 54.6928 11.51 54.4895 11.51C54.0628 11.51 53.7245 11.635 53.4745 11.885C53.2278 12.1317 53.0745 12.475 53.0145 12.915H55.7845ZM56.5045 15.29C56.3945 15.4233 56.2628 15.54 56.1095 15.64C55.9561 15.7367 55.7911 15.8167 55.6145 15.88C55.4411 15.9433 55.2611 15.99 55.0745 16.02C54.8878 16.0533 54.7028 16.07 54.5195 16.07C54.1695 16.07 53.8461 16.0117 53.5495 15.895C53.2561 15.775 53.0011 15.6017 52.7845 15.375C52.5711 15.145 52.4045 14.8617 52.2845 14.525C52.1645 14.1883 52.1045 13.8017 52.1045 13.365C52.1045 13.0117 52.1578 12.6817 52.2645 12.375C52.3745 12.0683 52.5311 11.8033 52.7345 11.58C52.9378 11.3533 53.1861 11.1767 53.4795 11.05C53.7728 10.92 54.1028 10.855 54.4695 10.855C54.7728 10.855 55.0528 10.9067 55.3095 11.01C55.5695 11.11 55.7928 11.2567 55.9795 11.45C56.1695 11.64 56.3178 11.8767 56.4245 12.16C56.5311 12.44 56.5845 12.76 56.5845 13.12C56.5845 13.26 56.5695 13.3533 56.5395 13.4C56.5095 13.4467 56.4528 13.47 56.3695 13.47H52.9845C52.9945 13.79 53.0378 14.0683 53.1145 14.305C53.1945 14.5417 53.3045 14.74 53.4445 14.9C53.5845 15.0567 53.7511 15.175 53.9445 15.255C54.1378 15.3317 54.3545 15.37 54.5945 15.37C54.8178 15.37 55.0095 15.345 55.1695 15.295C55.3328 15.2417 55.4728 15.185 55.5895 15.125C55.7061 15.065 55.8028 15.01 55.8795 14.96C55.9595 14.9067 56.0278 14.88 56.0845 14.88C56.1578 14.88 56.2145 14.9083 56.2545 14.965L56.5045 15.29ZM58.5727 14.78C58.736 15 58.9143 15.155 59.1077 15.245C59.3043 15.335 59.5193 15.38 59.7527 15.38C60.2293 15.38 60.5943 15.2117 60.8477 14.875C61.101 14.5383 61.2277 14.0367 61.2277 13.37C61.2277 12.75 61.1143 12.295 60.8877 12.005C60.6643 11.7117 60.3443 11.565 59.9277 11.565C59.6377 11.565 59.3843 11.6317 59.1677 11.765C58.9543 11.8983 58.756 12.0867 58.5727 12.33V14.78ZM58.5727 11.665C58.786 11.4183 59.026 11.2217 59.2927 11.075C59.5627 10.9283 59.8727 10.855 60.2227 10.855C60.5193 10.855 60.786 10.9117 61.0227 11.025C61.2627 11.1383 61.466 11.3033 61.6327 11.52C61.7993 11.7333 61.926 11.9933 62.0127 12.3C62.1027 12.6067 62.1477 12.9517 62.1477 13.335C62.1477 13.745 62.0977 14.1183 61.9977 14.455C61.8977 14.7917 61.7527 15.08 61.5627 15.32C61.376 15.5567 61.1477 15.7417 60.8777 15.875C60.6077 16.005 60.3043 16.07 59.9677 16.07C59.6343 16.07 59.3527 16.0083 59.1227 15.885C58.896 15.7583 58.6977 15.58 58.5277 15.35L58.4827 15.81C58.456 15.9367 58.3793 16 58.2527 16H57.6777V8.635H58.5727V11.665ZM66.2234 11.77C66.1834 11.8433 66.1217 11.88 66.0384 11.88C65.9884 11.88 65.9317 11.8617 65.8684 11.825C65.805 11.7883 65.7267 11.7483 65.6334 11.705C65.5434 11.6583 65.435 11.6167 65.3084 11.58C65.1817 11.54 65.0317 11.52 64.8584 11.52C64.7084 11.52 64.5734 11.54 64.4534 11.58C64.3334 11.6167 64.23 11.6683 64.1434 11.735C64.06 11.8017 63.995 11.88 63.9484 11.97C63.905 12.0567 63.8834 12.1517 63.8834 12.255C63.8834 12.385 63.92 12.4933 63.9934 12.58C64.07 12.6667 64.17 12.7417 64.2934 12.805C64.4167 12.8683 64.5567 12.925 64.7134 12.975C64.87 13.0217 65.03 13.0733 65.1934 13.13C65.36 13.1833 65.5217 13.2433 65.6784 13.31C65.835 13.3767 65.975 13.46 66.0984 13.56C66.2217 13.66 66.32 13.7833 66.3934 13.93C66.47 14.0733 66.5084 14.2467 66.5084 14.45C66.5084 14.6833 66.4667 14.9 66.3834 15.1C66.3 15.2967 66.1767 15.4683 66.0134 15.615C65.85 15.7583 65.65 15.8717 65.4134 15.955C65.1767 16.0383 64.9034 16.08 64.5934 16.08C64.24 16.08 63.92 16.0233 63.6334 15.91C63.3467 15.7933 63.1034 15.645 62.9034 15.465L63.1134 15.125C63.14 15.0817 63.1717 15.0483 63.2084 15.025C63.245 15.0017 63.2917 14.99 63.3484 14.99C63.4084 14.99 63.4717 15.0133 63.5384 15.06C63.605 15.1067 63.685 15.1583 63.7784 15.215C63.875 15.2717 63.9917 15.3233 64.1284 15.37C64.265 15.4167 64.435 15.44 64.6384 15.44C64.8117 15.44 64.9634 15.4183 65.0934 15.375C65.2234 15.3283 65.3317 15.2667 65.4184 15.19C65.505 15.1133 65.5684 15.025 65.6084 14.925C65.6517 14.825 65.6734 14.7183 65.6734 14.605C65.6734 14.465 65.635 14.35 65.5584 14.26C65.485 14.1667 65.3867 14.0883 65.2634 14.025C65.14 13.9583 64.9984 13.9017 64.8384 13.855C64.6817 13.805 64.52 13.7533 64.3534 13.7C64.19 13.6467 64.0284 13.5867 63.8684 13.52C63.7117 13.45 63.5717 13.3633 63.4484 13.26C63.325 13.1567 63.225 13.03 63.1484 12.88C63.075 12.7267 63.0384 12.5417 63.0384 12.325C63.0384 12.1317 63.0784 11.9467 63.1584 11.77C63.2384 11.59 63.355 11.4333 63.5084 11.3C63.6617 11.1633 63.85 11.055 64.0734 10.975C64.2967 10.895 64.5517 10.855 64.8384 10.855C65.1717 10.855 65.47 10.9083 65.7334 11.015C66 11.1183 66.23 11.2617 66.4234 11.445L66.2234 11.77ZM68.5395 10.935V16H67.6495V10.935H68.5395ZM68.7295 9.345C68.7295 9.43167 68.7112 9.51333 68.6745 9.59C68.6412 9.66333 68.5945 9.73 68.5345 9.79C68.4779 9.84667 68.4095 9.89167 68.3295 9.925C68.2529 9.95833 68.1712 9.975 68.0845 9.975C67.9979 9.975 67.9162 9.95833 67.8395 9.925C67.7662 9.89167 67.7012 9.84667 67.6445 9.79C67.5879 9.73 67.5429 9.66333 67.5095 9.59C67.4762 9.51333 67.4595 9.43167 67.4595 9.345C67.4595 9.25833 67.4762 9.17667 67.5095 9.1C67.5429 9.02 67.5879 8.95167 67.6445 8.895C67.7012 8.835 67.7662 8.78833 67.8395 8.755C67.9162 8.72167 67.9979 8.705 68.0845 8.705C68.1712 8.705 68.2529 8.72167 68.3295 8.755C68.4095 8.78833 68.4779 8.835 68.5345 8.895C68.5945 8.95167 68.6412 9.02 68.6745 9.1C68.7112 9.17667 68.7295 9.25833 68.7295 9.345ZM71.5569 16.08C71.1569 16.08 70.8485 15.9683 70.6319 15.745C70.4185 15.5217 70.3119 15.2 70.3119 14.78V11.68H69.7019C69.6485 11.68 69.6035 11.665 69.5669 11.635C69.5302 11.6017 69.5119 11.5517 69.5119 11.485V11.13L70.3419 11.025L70.5469 9.46C70.5569 9.41 70.5785 9.37 70.6119 9.34C70.6485 9.30667 70.6952 9.29 70.7519 9.29H71.2019V11.035H72.6669V11.68H71.2019V14.72C71.2019 14.9333 71.2535 15.0917 71.3569 15.195C71.4602 15.2983 71.5935 15.35 71.7569 15.35C71.8502 15.35 71.9302 15.3383 71.9969 15.315C72.0669 15.2883 72.1269 15.26 72.1769 15.23C72.2269 15.2 72.2685 15.1733 72.3019 15.15C72.3385 15.1233 72.3702 15.11 72.3969 15.11C72.4435 15.11 72.4852 15.1383 72.5219 15.195L72.7819 15.62C72.6285 15.7633 72.4435 15.8767 72.2269 15.96C72.0102 16.04 71.7869 16.08 71.5569 16.08ZM76.9466 12.915C76.9466 12.7083 76.9166 12.52 76.8566 12.35C76.7999 12.1767 76.7149 12.0283 76.6016 11.905C76.4916 11.7783 76.3566 11.6817 76.1966 11.615C76.0366 11.545 75.8549 11.51 75.6516 11.51C75.2249 11.51 74.8866 11.635 74.6366 11.885C74.3899 12.1317 74.2366 12.475 74.1766 12.915H76.9466ZM77.6666 15.29C77.5566 15.4233 77.4249 15.54 77.2716 15.64C77.1182 15.7367 76.9532 15.8167 76.7766 15.88C76.6032 15.9433 76.4232 15.99 76.2366 16.02C76.0499 16.0533 75.8649 16.07 75.6816 16.07C75.3316 16.07 75.0082 16.0117 74.7116 15.895C74.4182 15.775 74.1632 15.6017 73.9466 15.375C73.7332 15.145 73.5666 14.8617 73.4466 14.525C73.3266 14.1883 73.2666 13.8017 73.2666 13.365C73.2666 13.0117 73.3199 12.6817 73.4266 12.375C73.5366 12.0683 73.6932 11.8033 73.8966 11.58C74.0999 11.3533 74.3482 11.1767 74.6416 11.05C74.9349 10.92 75.2649 10.855 75.6316 10.855C75.9349 10.855 76.2149 10.9067 76.4716 11.01C76.7316 11.11 76.9549 11.2567 77.1416 11.45C77.3316 11.64 77.4799 11.8767 77.5866 12.16C77.6932 12.44 77.7466 12.76 77.7466 13.12C77.7466 13.26 77.7316 13.3533 77.7016 13.4C77.6716 13.4467 77.6149 13.47 77.5316 13.47H74.1466C74.1566 13.79 74.1999 14.0683 74.2766 14.305C74.3566 14.5417 74.4666 14.74 74.6066 14.9C74.7466 15.0567 74.9132 15.175 75.1066 15.255C75.2999 15.3317 75.5166 15.37 75.7566 15.37C75.9799 15.37 76.1716 15.345 76.3316 15.295C76.4949 15.2417 76.6349 15.185 76.7516 15.125C76.8682 15.065 76.9649 15.01 77.0416 14.96C77.1216 14.9067 77.1899 14.88 77.2466 14.88C77.3199 14.88 77.3766 14.9083 77.4166 14.965L77.6666 15.29Z" fill="#070125"/>
<g clip-path="url(#clip0_2_9)">
<rect x="6" y="6" width="12" height="12" rx="4" fill="#070125"/>
<path fill-rule="evenodd" clip-rule="evenodd" d="M16.3851 12C16.3851 11.8206 16.2881 11.7028 16.094 11.4672C15.384 10.6051 13.8178 9 12 9C10.1821 9 8.61603 10.6051 7.90599 11.4672C7.71191 11.7028 7.61487 11.8206 7.61487 12C7.61487 12.1794 7.71191 12.2972 7.90599 12.5328C8.61603 13.3949 10.1821 15 12 15C13.8178 15 15.384 13.3949 16.094 12.5328C16.2881 12.2972 16.3851 12.1794 16.3851 12ZM12 13.5C12.8284 13.5 13.5 12.8285 13.5 12C13.5 11.1715 12.8284 10.5 12 10.5C11.1716 10.5 10.5 11.1715 10.5 12C10.5 12.8285 11.1716 13.5 12 13.5Z" fill="#364EEF"/>
</g>
<defs>
<clipPath id="clip0_2_9">
<rect x="6" y="6" width="12" height="12" rx="4" fill="white"/>
</clipPath>
</defs>
</svg>
